<!--
  - Copyright (c) 2024 Huawei Device Co., Ltd.
  - Licensed under the Apache License, Version 2.0 (the "License");
  - you may not use this file except in compliance with the License.
  - You may obtain a copy of the License at
  -
  -     http://www.apache.org/licenses/LICENSE-2.0
  -
  - Unless required by applicable law or agreed to in writing, software
  - distributed under the License is distributed on an "AS IS" BASIS,
  - WITHOUT WARRANTIES OR CONDITIONS OF ANY KIND, either express or implied.
  - See the License for the specific language governing permissions and
  - limitations under the License.
  -->

<svg width="40.000000" height="40.000000" viewBox="0 0 40 40" fill="none" xmlns="http://www.w3.org/2000/svg" xmlns:xlink="http://www.w3.org/1999/xlink">
    <desc>
        Created with Pixso.
    </desc>
    <defs/>
    <rect id=".close btn" rx="20.000000" width="40.000000" height="40.000000" fill="#000000" fill-opacity="0.050980"/>
    <path id="形状" d="M25.6562 14.3438C25.9492 14.6367 25.9492 15.1133 25.6562 15.4062L15.4033 25.6602C15.1104 25.9531 14.6357 25.9531 14.3428 25.6602C14.0498 25.3672 14.0498 24.8906 14.3428 24.5977L18.9395 20L14.3428 15.4062C14.0498 15.1133 14.0498 14.6367 14.3428 14.3438C14.6357 14.0508 15.1104 14.0508 15.4033 14.3438L20 18.9414L24.5957 14.3438C24.8887 14.0508 25.3633 14.0508 25.6562 14.3438ZM25.6562 25.6602C25.9492 25.3672 25.9492 24.8906 25.6562 24.5977L21.7666 20.707L20.7061 21.7695L24.5957 25.6602C24.8887 25.9531 25.3633 25.9531 25.6562 25.6602Z" clip-rule="evenodd" fill="#000000" fill-opacity="0.901961" fill-rule="evenodd"/>
</svg>
