<?xml version="1.0" encoding="UTF-8"?>
<!--
  - Copyright (c) 2024 Huawei Device Co., Ltd.
  - Licensed under the Apache License, Version 2.0 (the "License");
  - you may not use this file except in compliance with the License.
  - You may obtain a copy of the License at
  -
  -     http://www.apache.org/licenses/LICENSE-2.0
  -
  - Unless required by applicable law or agreed to in writing, software
  - distributed under the License is distributed on an "AS IS" BASIS,
  - WITHOUT WARRANTIES OR CONDITIONS OF ANY KIND, either express or implied.
  - See the License for the specific language governing permissions and
  - limitations under the License.
  -->

<svg width="20px" height="20px" viewBox="0 0 20 20" version="1.1" xmlns="http://www.w3.org/2000/svg" xmlns:xlink="http://www.w3.org/1999/xlink">
    <title>qieHuang</title>
    <g id="页面-1" stroke="none" stroke-width="1" fill="none" fill-rule="evenodd">
        <g id="折叠屏_图文详情1（左右布局）" transform="translate(-631.000000, -54.000000)" fill="#000000" fill-rule="nonzero">
            <g id="Navigation/TitleBar/Tablet/1-Line/Drawer-with-toolbar" transform="translate(24.000000, 36.000000)">
                <g id="上下" transform="translate(607.000000, 18.000000)">
                    <path d="M17,0 C18.6568542,0 20,1.34314575 20,3 L20,10.5 C20,12.1568542 18.6568542,13.5 17,13.5 L3,13.5 C1.34314575,13.5 0,12.1568542 0,10.5 L0,3 C0,1.34314575 1.34314575,0 3,0 L17,0 Z M17,1.5 L3,1.5 C2.17157288,1.5 1.5,2.17157288 1.5,3 L1.5,10.5 C1.5,11.3284271 2.17157288,12 3,12 L17,12 C17.8284271,12 18.5,11.3284271 18.5,10.5 L18.5,3 C18.5,2.17157288 17.8284271,1.5 17,1.5 Z" id="形状结合"></path>
                    <path d="M17.5,15 C18.8807119,15 20,16.1192881 20,17.5 C20,18.8807119 18.8807119,20 17.5,20 L2.5,20 C1.11928813,20 0,18.8807119 0,17.5 C0,16.1192881 1.11928813,15 2.5,15 L17.5,15 Z M17.5,16.5 L2.5,16.5 C1.94771525,16.5 1.5,16.9477153 1.5,17.5 C1.5,18.0522847 1.94771525,18.5 2.5,18.5 L17.5,18.5 C18.0522847,18.5 18.5,18.0522847 18.5,17.5 C18.5,16.9477153 18.0522847,16.5 17.5,16.5 Z" id="形状结合"></path>
                </g>
            </g>
        </g>
    </g>
</svg>