<svg width="36.000000" height="36.000000" viewBox="0 0 36 36" fill="none" xmlns="http://www.w3.org/2000/svg" xmlns:xlink="http://www.w3.org/1999/xlink">
	<desc>
			Created with Pixso.
	</desc>
	<defs>
		<clipPath id="clip11_6884">
			<rect id="svg" width="36.000000" height="36.000000" fill="white" fill-opacity="0"/>
		</clipPath>
	</defs>
	<g clip-path="url(#clip11_6884)">
		<path id="path-1" d="M7.1 9.98C7.82 8.72 9.43 8.29 10.68 9.02L22.29 15.72C22.69 15.95 23.02 16.28 23.25 16.68C23.98 17.94 23.55 19.54 22.29 20.27L10.68 26.97C10.28 27.2 9.83 27.32 9.37 27.32C7.92 27.32 6.75 26.15 6.75 24.7L6.75 11.29C6.75 10.83 6.87 10.38 7.1 9.98ZM27.37 9.37C28.2 9.37 28.87 10.04 28.87 10.87L28.87 25.12C28.87 25.95 28.2 26.62 27.37 26.62C26.54 26.62 25.87 25.95 25.87 25.12L25.87 10.87C25.87 10.04 26.54 9.37 27.37 9.37Z" fill="#576B8C" fill-opacity="1.000000" fill-rule="nonzero"/>
		<path id="path-1" d="M10.68 9.02L22.29 15.72C22.69 15.95 23.02 16.28 23.25 16.68C23.98 17.94 23.55 19.54 22.29 20.27L10.68 26.97C10.28 27.2 9.83 27.32 9.37 27.32C7.92 27.32 6.75 26.15 6.75 24.7L6.75 11.29C6.75 10.83 6.87 10.38 7.1 9.98C7.82 8.72 9.43 8.29 10.68 9.02ZM28.87 10.87L28.87 25.12C28.87 25.95 28.2 26.62 27.37 26.62C26.54 26.62 25.87 25.95 25.87 25.12L25.87 10.87C25.87 10.04 26.54 9.37 27.37 9.37C28.2 9.37 28.87 10.04 28.87 10.87Z" stroke="#000000" stroke-opacity="0" stroke-width="1.000000"/>
	</g>
</svg>
