<svg width="36.000000" height="36.000000" viewBox="0 0 36 36" fill="none" xmlns="http://www.w3.org/2000/svg" xmlns:xlink="http://www.w3.org/1999/xlink">
	<desc>
			Created with Pixso.
	</desc>
	<defs>
		<clipPath id="clip11_6891">
			<rect id="svg" width="36.000000" height="36.000000" transform="matrix(-1 0 0 1 36 0)" fill="white" fill-opacity="0"/>
		</clipPath>
	</defs>
	<g clip-path="url(#clip11_6891)">
		<path id="path-1" d="M28.89 9.98C28.17 8.72 26.56 8.29 25.31 9.02L13.7 15.72C13.3 15.95 12.97 16.28 12.74 16.68C12.01 17.94 12.44 19.54 13.7 20.27L25.31 26.97C25.71 27.2 26.16 27.32 26.62 27.32C28.07 27.32 29.25 26.15 29.25 24.7L29.25 11.29C29.25 10.83 29.12 10.38 28.89 9.98ZM8.62 9.37C7.79 9.37 7.12 10.04 7.12 10.87L7.12 25.12C7.12 25.95 7.79 26.62 8.62 26.62C9.45 26.62 10.12 25.95 10.12 25.12L10.12 10.87C10.12 10.04 9.45 9.37 8.62 9.37Z" fill="#576B8C" fill-opacity="1.000000" fill-rule="nonzero"/>
		<path id="path-1" d="M25.31 9.02L13.7 15.72C13.3 15.95 12.97 16.28 12.74 16.68C12.01 17.94 12.44 19.54 13.7 20.27L25.31 26.97C25.71 27.2 26.16 27.32 26.62 27.32C28.07 27.32 29.25 26.15 29.25 24.7L29.25 11.29C29.25 10.83 29.12 10.38 28.89 9.98C28.17 8.72 26.56 8.29 25.31 9.02ZM7.12 10.87L7.12 25.12C7.12 25.95 7.79 26.62 8.62 26.62C9.45 26.62 10.12 25.95 10.12 25.12L10.12 10.87C10.12 10.04 9.45 9.37 8.62 9.37C7.79 9.37 7.12 10.04 7.12 10.87Z" stroke="#000000" stroke-opacity="0" stroke-width="1.000000"/>
	</g>
</svg>
