<svg viewBox="0 0 16 16" xmlns="http://www.w3.org/2000/svg" width="16.000000" height="16.000000" fill="none">
	<g id="组合 29743">
		<circle id="椭圆形" cx="8" cy="8" r="8" fill="rgb(240,166,195)" />
		<circle id="椭圆形" cx="8" cy="8" r="7.5" stroke="rgb(151,151,151)" stroke-opacity="0" stroke-width="1" />
		<path id="" d="M6.45508 5.20898L6.45508 5.83984L4.63281 5.83984L4.63281 11.0645L3.91211 11.0645L3.91211 5.83984L2.0957 5.83984L2.0957 5.20898L6.45508 5.20898ZM9.79114 8.71289C9.79114 8.86133 9.78072 8.99675 9.75989 9.11914L6.7677 9.11914C6.79505 9.5944 6.93111 9.94792 7.17591 10.1797C7.4207 10.4115 7.72994 10.5273 8.10364 10.5273C8.56848 10.5273 8.90442 10.3411 9.11145 9.96875L9.63294 10.2637C9.52617 10.5462 9.32695 10.765 9.03528 10.9199C8.74492 11.0749 8.42135 11.1523 8.06458 11.1523C7.69088 11.1523 7.35039 11.0671 7.04309 10.8965C6.7371 10.7259 6.49492 10.4766 6.31653 10.1484C6.13815 9.82031 6.04895 9.42708 6.04895 8.96875C6.04895 8.52604 6.13815 8.14193 6.31653 7.81641C6.49492 7.49089 6.7332 7.24284 7.03137 7.07227C7.33085 6.90169 7.65898 6.81641 8.01575 6.81641C8.37382 6.81641 8.68697 6.90039 8.9552 7.06836C9.22473 7.23633 9.43111 7.46419 9.57434 7.75195C9.71887 8.03971 9.79114 8.36003 9.79114 8.71289ZM6.79114 8.56836L9.05677 8.56836C9.03984 8.21029 8.93502 7.93294 8.74231 7.73633C8.55091 7.53841 8.30091 7.43945 7.99231 7.43945C7.69283 7.43945 7.43242 7.53581 7.21106 7.72852C6.98971 7.91992 6.84973 8.19987 6.79114 8.56836ZM13.8644 8.53516L13.8644 11.0645L13.2648 11.0645C13.2479 10.7923 13.2368 10.6159 13.2316 10.5352C13.104 10.7383 12.9321 10.8919 12.716 10.9961C12.4998 11.1003 12.2531 11.1523 11.9757 11.1523C11.7088 11.1523 11.4595 11.1029 11.2277 11.0039C10.9959 10.9049 10.8104 10.7585 10.671 10.5645C10.533 10.3691 10.464 10.1354 10.464 9.86328C10.464 9.45312 10.6307 9.12956 10.964 8.89258C11.2973 8.6543 11.7277 8.53516 12.255 8.53516C12.5545 8.53516 12.8644 8.57552 13.1847 8.65625C13.1847 7.83984 12.8592 7.43164 12.2082 7.43164C11.7381 7.43164 11.3885 7.64779 11.1593 8.08008L10.6398 7.7832C10.7674 7.48503 10.9764 7.24935 11.2668 7.07617C11.5584 6.90299 11.8852 6.81641 12.2472 6.81641C12.5571 6.81641 12.8345 6.88477 13.0793 7.02148C13.3253 7.1569 13.5174 7.35417 13.6554 7.61328C13.7947 7.87109 13.8644 8.17839 13.8644 8.53516ZM13.1847 9.52734L13.1847 9.22461C12.8488 9.13867 12.5421 9.0957 12.2648 9.0957C11.9171 9.0957 11.6489 9.16276 11.4601 9.29688C11.2713 9.42969 11.1769 9.61588 11.1769 9.85547C11.1769 10.0794 11.2563 10.2546 11.4152 10.3809C11.5753 10.5059 11.7837 10.5684 12.0402 10.5684C12.3553 10.5684 12.6248 10.4766 12.8488 10.293C13.0727 10.1081 13.1847 9.85287 13.1847 9.52734Z" fill="rgb(255,255,255)" fill-rule="nonzero" />
	</g>
</svg>
