<?xml version="1.0" standalone="no"?>
<svg xmlns="http://www.w3.org/2000/svg" width="24" height="24"><rect width="24" height="24" opacity="0"></rect><g mask="url(#hms_mask_0)"><path d="M4.2 4.44Q3.17 4.54 2.47 5.28Q1.78 6.02 1.7 7.06Q1.34 12.29 1.68 17.06Q1.75 18.12 2.51 18.88Q3.26 19.63 4.32 19.7Q8.74 19.99 12.1 19.99Q15.46 19.99 19.66 19.68Q20.71 19.61 21.44 18.88Q22.18 18.14 22.27 17.11Q22.51 14.28 22.5 12.05Q22.49 9.82 22.25 6.89Q22.15 5.9 21.5 5.21Q20.86 4.51 19.92 4.42Q12.5 3.53 4.2 4.44Z" fill="rgba(0,0,0,0.6)"></path></g><defs><mask id="hms_mask_0"><rect width="24" height="24" fill="#ffffff"></rect><g><path d="M9.91 15.1Q9.46 14.76 9.29 13.44Q9.12 12.12 9.29 10.76Q9.46 9.41 9.91 8.95Q10.37 8.5 11.66 9.01Q12.96 9.53 14.09 10.48Q15.22 11.42 15.22 12.05Q15.22 12.67 14.1 13.55Q12.98 14.42 11.68 14.93Q10.37 15.43 9.91 15.1Z" fill="#000000"></path></g></mask></defs></svg>