<?xml version="1.0" encoding="UTF-8"?>
<svg width="32px" height="32px" viewBox="0 0 44 24" version="1.1" xmlns="http://www.w3.org/2000/svg">
    <title>ic_public_likes_tv</title>
    <g stroke="none" stroke-width="1" fill="none" fill-rule="evenodd">
        <rect fill="transparent" x="0" y="0" width="44" height="24"/>
        <path fill="#e6ffffff" fill-rule="nonzero"
              transform="matrix(1.1744000 0 0 1.1744000 -0.7632000 -2.4061000)"
              d="M3.13283323,4.79567628 C5.65837386,2.20675244 9.70323504,2.04882087 12.4094597,4.4072243 C12.4465231,4.43984353 12.4465231,4.43984353 12.5011542,4.48882579 C12.8092582,4.7656738 12.8345961,5.23987108 12.5577481,5.54797504 C12.2809001,5.856079 11.8067028,5.88141694 11.4985988,5.60456892 C11.4478431,5.5590803 11.4478431,5.5590803 11.4239633,5.53806331 C9.31689587,3.70180961 6.17579128,3.82445401 4.20655565,5.84311133 C2.26492712,7.83346869 2.26882992,11.0236902 4.19219914,13.6525433 C4.75752982,14.4252349 5.61875062,15.3950702 6.72867503,16.5073171 L6.92496516,16.7025674 C7.61987376,17.3846076 8.98811625,18.6076168 11.0387163,20.3789686 C11.5961369,20.8604803 12.4048121,20.8613109 12.9619706,20.3819815 L13.8481812,19.61636 C15.3466383,18.3157665 16.3924111,17.3738201 16.9874757,16.7894446 L17.0284227,16.7490981 C18.2563537,15.5348916 19.201764,14.4808719 19.8078009,13.6525433 C20.7561449,12.3563505 21.2582445,10.8809865 21.2501243,9.46749009 C21.2477447,9.05328337 21.5815966,8.71557347 21.9958033,8.71319393 C22.4100101,8.71081438 22.74772,9.04466628 22.7502213,9.45887301 C22.7601138,11.2020602 22.1520636,12.9887482 21.0183863,14.5382537 C20.3582418,15.4405364 19.3629946,16.5501183 18.0821727,17.816623 L18.0393872,17.8587812 C17.4157904,18.4711778 16.3515651,19.4297448 14.8301062,20.7503003 L13.9414132,21.5180667 C12.8197703,22.4830324 11.1778968,22.4813462 10.0581663,21.5140993 C7.98420205,19.722565 6.59885437,18.4842663 5.87072605,17.7695984 L5.66890457,17.5688624 C4.50745447,16.40499 3.59845698,15.3813525 2.98161375,14.5382537 C0.649914194,11.3512964 0.645014184,7.34593185 3.13283323,4.79567628 Z"/>
    </g>
</svg>
