<?xml version="1.0" standalone="no"?>
<svg xmlns="http://www.w3.org/2000/svg" width="24" height="24"><rect width="24" height="24" opacity="0"></rect><g><path d="M4.73 5.23L17.02 5.23Q17.93 5.23 18.6 5.89Q19.27 6.55 19.27 7.49L19.27 14.66Q19.27 14.98 19.49 15.2Q19.7 15.43 20.02 15.43Q20.33 15.43 20.54 15.2Q20.76 14.98 20.76 14.66L20.76 7.49Q20.76 6.46 20.26 5.59Q19.75 4.73 18.89 4.22Q18.02 3.72 17.02 3.72L4.73 3.72L4.73 2.4Q4.73 2.18 4.6 2.05Q4.46 1.92 4.27 1.9Q4.08 1.87 3.91 1.99L1.32 4.08Q1.15 4.22 1.15 4.46Q1.15 4.7 1.32 4.87L3.91 6.94Q4.08 7.06 4.27 7.04Q4.46 7.03 4.6 6.89Q4.73 6.74 4.73 6.55ZM20.09 17.04Q19.92 16.92 19.73 16.94Q19.54 16.97 19.4 17.1Q19.27 17.23 19.27 17.45L19.27 18.77L7.01 18.77Q6.07 18.77 5.41 18.11Q4.75 17.45 4.75 16.51L4.7 9.34Q4.7 9.02 4.49 8.81Q4.27 8.59 3.96 8.59Q3.67 8.59 3.47 8.78Q3.26 8.98 3.24 9.26L3.24 16.51Q3.24 17.54 3.74 18.41Q4.25 19.27 5.12 19.78Q6 20.28 7.01 20.28L19.3 20.28L19.3 21.6Q19.3 21.82 19.43 21.95Q19.56 22.08 19.75 22.09Q19.94 22.1 20.11 21.98L22.68 19.92Q22.87 19.75 22.87 19.51Q22.87 19.27 22.68 19.13L20.09 17.04Z" fill="rgba(0,0,0,0.9019607843137255)"></path></g></svg>